<svg width="600" height="400" viewBox="0 0 600 400" fill="none" xmlns="http://www.w3.org/2000/svg">
  <defs>
    <linearGradient id="bg" x1="54" y1="42" x2="546" y2="358" gradientUnits="userSpaceOnUse">
      <stop stop-color="#DBF4FF"/>
      <stop offset="1" stop-color="#A5D8FF"/>
    </linearGradient>
  </defs>
  <rect width="600" height="400" rx="36" fill="url(#bg)"/>
  <path d="M228 108H372L352 306C350 322 337 334 321 334H279C263 334 250 322 248 306L228 108Z" fill="#F8FDFF" fill-opacity="0.92"/>
  <path d="M246 140H354L340 286C339 296 330 304 320 304H280C270 304 261 296 260 286L246 140Z" fill="#38BDF8" fill-opacity="0.38"/>
  <path d="M364 90L432 44" stroke="#0F766E" stroke-width="14" stroke-linecap="round"/>
  <path d="M352 136L392 96" stroke="#0F766E" stroke-width="14" stroke-linecap="round"/>
  <circle cx="280" cy="180" r="12" fill="#FFFFFF" fill-opacity="0.62"/>
  <circle cx="326" cy="222" r="10" fill="#FFFFFF" fill-opacity="0.62"/>
  <circle cx="298" cy="254" r="8" fill="#FFFFFF" fill-opacity="0.62"/>
  <text x="52" y="72" fill="#155E75" font-family="Arial, Helvetica, sans-serif" font-size="24" font-weight="700" letter-spacing="5">BEVERAGES</text>
  <text x="52" y="350" fill="#155E75" font-family="Arial, Helvetica, sans-serif" font-size="18" font-weight="600" letter-spacing="2">Generic menu artwork</text>
</svg>
