<svg width="600" height="400" viewBox="0 0 600 400" fill="none" xmlns="http://www.w3.org/2000/svg">
  <defs>
    <linearGradient id="bg" x1="56" y1="34" x2="544" y2="366" gradientUnits="userSpaceOnUse">
      <stop stop-color="#FEF3C7"/>
      <stop offset="1" stop-color="#FCD34D"/>
    </linearGradient>
  </defs>
  <rect width="600" height="400" rx="36" fill="url(#bg)"/>
  <path d="M194 210C194 165 241 130 300 130C359 130 406 165 406 210V214C406 276 359 322 300 322C241 322 194 276 194 214V210Z" fill="#FFF9ED"/>
  <path d="M226 214C226 184 259 160 300 160C341 160 374 184 374 214" fill="#FFFFFF" fill-opacity="0.82"/>
  <path d="M214 214H386C378 273 345 312 300 312C255 312 222 273 214 214Z" fill="#D97706" fill-opacity="0.82"/>
  <path d="M268 110C268 89 278 74 290 60" stroke="#FFFFFF" stroke-width="12" stroke-linecap="round"/>
  <path d="M300 114C300 89 310 70 324 52" stroke="#FFFFFF" stroke-width="12" stroke-linecap="round"/>
  <path d="M332 110C332 91 343 76 356 64" stroke="#FFFFFF" stroke-width="12" stroke-linecap="round"/>
  <text x="52" y="72" fill="#92400E" font-family="Arial, Helvetica, sans-serif" font-size="24" font-weight="700" letter-spacing="5">RICE &amp; BIRYANI</text>
  <text x="52" y="350" fill="#92400E" font-family="Arial, Helvetica, sans-serif" font-size="18" font-weight="600" letter-spacing="2">Generic menu artwork</text>
</svg>
