<svg width="600" height="400" viewBox="0 0 600 400" fill="none" xmlns="http://www.w3.org/2000/svg">
  <defs>
    <linearGradient id="bg" x1="60" y1="36" x2="540" y2="364" gradientUnits="userSpaceOnUse">
      <stop stop-color="#FEE7D6"/>
      <stop offset="1" stop-color="#FDBA8C"/>
    </linearGradient>
  </defs>
  <rect width="600" height="400" rx="36" fill="url(#bg)"/>
  <rect x="160" y="228" width="280" height="34" rx="17" fill="#7C2D12" fill-opacity="0.16"/>
  <path d="M208 230C208 167 248 128 300 128C352 128 392 167 392 230H208Z" fill="#FFF8EF"/>
  <path d="M248 130C248 112 271 98 300 98C329 98 352 112 352 130" stroke="#EA580C" stroke-width="18" stroke-linecap="round"/>
  <path d="M222 232H378C378 275 343 310 300 310C257 310 222 275 222 232Z" fill="#C2410C" fill-opacity="0.82"/>
  <circle cx="262" cy="242" r="10" fill="#FED7AA"/>
  <circle cx="300" cy="256" r="10" fill="#FDBA74"/>
  <circle cx="338" cy="242" r="10" fill="#FED7AA"/>
  <text x="52" y="72" fill="#7C2D12" font-family="Arial, Helvetica, sans-serif" font-size="24" font-weight="700" letter-spacing="5">MAIN COURSE</text>
  <text x="52" y="350" fill="#7C2D12" font-family="Arial, Helvetica, sans-serif" font-size="18" font-weight="600" letter-spacing="2">Generic menu artwork</text>
</svg>
