<svg width="600" height="400" viewBox="0 0 600 400" fill="none" xmlns="http://www.w3.org/2000/svg">
  <defs>
    <linearGradient id="bg" x1="54" y1="42" x2="546" y2="358" gradientUnits="userSpaceOnUse">
      <stop stop-color="#FCE7F3"/>
      <stop offset="1" stop-color="#F9A8D4"/>
    </linearGradient>
  </defs>
  <rect width="600" height="400" rx="36" fill="url(#bg)"/>
  <path d="M206 262C206 207 248 168 300 168C352 168 394 207 394 262" fill="#FFF8FD"/>
  <path d="M224 262H376L354 314C349 326 338 334 325 334H275C262 334 251 326 246 314L224 262Z" fill="#DB2777" fill-opacity="0.82"/>
  <path d="M246 196C246 169 270 148 300 148C330 148 354 169 354 196V210H246V196Z" fill="#FFFFFF" fill-opacity="0.78"/>
  <circle cx="300" cy="128" r="18" fill="#FB7185"/>
  <path d="M300 128L300 84" stroke="#FFFFFF" stroke-width="8" stroke-linecap="round"/>
  <circle cx="270" cy="250" r="10" fill="#FCE7F3"/>
  <circle cx="330" cy="250" r="10" fill="#FCE7F3"/>
  <text x="52" y="72" fill="#9D174D" font-family="Arial, Helvetica, sans-serif" font-size="24" font-weight="700" letter-spacing="5">DESSERTS</text>
  <text x="52" y="350" fill="#9D174D" font-family="Arial, Helvetica, sans-serif" font-size="18" font-weight="600" letter-spacing="2">Generic menu artwork</text>
</svg>
